# xmcd
#
# Track frame offsets: 
#        150
#        19468
#        39761
#        56432
#        89392
#        109240
#        137538
#        153816
#        174401
#        198791
#        217735
#        235228
#        254036
#        271464
#        287744
#        304368
#        326860
#
# Disc length: 4610 seconds
#
# Revision: 0
# Processed by: cddbd v1.5.2PL0 Copyright (c) Steve Scherf et al.
# Submitted via: ExactAudioCopy v0.95b4
#
DISCID=ef120011
DTITLE=Sade - The Best of Sade
DYEAR=1900
DGENRE=Pop
TTITLE0=Smooth Operator
TTITLE1=Hang On To Your Love
TTITLE2=Your Love Is King
TTITLE3=No Ordinary Love
TTITLE4=The Sweetest Taboo
TTITLE5=Is It Crime
TTITLE6=Like A Tatoo
TTITLE7=By Your Side
TTITLE8=Jezebel
TTITLE9=Lovers Rock
TTITLE10=It's Only Love Gets Your Through
TTITLE11=Kiss Of Life
TTITLE12=Nothing Can Come Between Us
TTITLE13=Paradise
TTITLE14=Please Send Me Someone To Love
TTITLE15=Somebody Already Broken My Heart
TTITLE16=Slave Song
EXTD=
EXTT0=
EXTT1=
EXTT2=
EXTT3=
EXTT4=
EXTT5=
EXTT6=
EXTT7=
EXTT8=
EXTT9=
EXTT10=
EXTT11=
EXTT12=
EXTT13=
EXTT14=
EXTT15=
EXTT16=
PLAYORDER=
